# xmcd CD database file
#
# Track frame offsets:
#	150
#	26417
#	48689
#
# Disc length: 1141 seconds
#
# Revision: 0
# Processed by: cddbd v1.5.2PL0 Copyright (c) Steve Scherf et al.
# Submitted via: CDex 1.51
#
DISCID=1f047303
DTITLE=Platform - Pseudochromis EP
DYEAR=2009
DGENRE=New Age
TTITLE0=Varient
TTITLE1=Axis
TTITLE2=Through Glass
EXTD=YEAR: 2009
EXTT0=
EXTT1=
EXTT2=
PLAYORDER=
